Coordinates
version=1
nRows=14
nColumns=36
inDegrees=yes

Units are S.I. units (second, meters, Newtons, ...)
If the header above contains a line with 'inDegrees', this indicates whether rotational values are in degrees (yes) or radians (no).

endheader
time	pelvis_tilt	pelvis_list	pelvis_rotation	pelvis_tx	pelvis_ty	pelvis_tz	hip_flexion_r	hip_adduction_r	hip_rotation_r	knee_angle_r	knee_angle_r_beta	ankle_angle_r	subtalar_angle_r	mtp_angle_r	hip_flexion_l	hip_adduction_l	hip_rotation_l	knee_angle_l	knee_angle_l_beta	ankle_angle_l	subtalar_angle_l	mtp_angle_l	lumbar_extension	lumbar_bending	lumbar_rotation	arm_flex_r	arm_add_r	arm_rot_r	elbow_flex_r	pro_sup_r	arm_flex_l	arm_add_l	arm_rot_l	elbow_flex_l	pro_sup_l
      3.93333330	    -35.04570356	     -0.70041772	     -0.81863593	      1.22398430	      0.45155271	      0.03249402	    115.17465477	    -20.77180461	      4.55667788	    119.03565057	      2.07756403	     39.07112365	     -9.44143046	     -7.49999987	    119.73095400	    -22.94078710	     11.82025241	    114.87295627	      2.00491131	     30.98600951	    -11.26256396	     -7.49999987	    -24.32462785	      0.40768411	     13.27808752	     84.60045746	     -7.17448136	     75.06495072	    134.08161042	     83.43670588	     80.49310986	      7.70492820	     69.56220345	    117.48408260	    103.63662311
      3.95000000	    -35.01689933	     -0.77142137	     -0.81531161	      1.22381566	      0.45149663	      0.03240323	    115.14963503	    -20.71135851	      4.55860003	    119.00311477	      2.07699617	     38.95390686	     -9.20625595	     -7.49999987	    119.73348146	    -22.87938835	     11.89650591	    114.88173623	      2.00506455	     31.07810561	    -11.07176955	     -7.49999987	    -24.37573715	      0.39249406	     13.27571596	     84.61782093	     -7.12558951	     74.77916839	    134.41514188	     84.25888243	     80.39441999	      8.03423736	     69.17831049	    117.08638674	    103.91745573
      3.96666670	    -35.04593851	     -0.84978768	     -0.80770772	      1.22386316	      0.45196637	      0.03216529	    115.10091815	    -20.68249169	      4.49325722	    118.88305223	      2.07490069	     38.87418952	     -9.00912763	     -7.49999987	    119.73130443	    -22.81288466	     11.93080580	    114.79569561	      2.00356286	     31.13458682	    -10.94106742	     -7.49999987	    -24.30422474	      0.44719702	     13.39887082	     84.48749016	     -7.39045131	     74.75797449	    134.29882273	     83.04649350	     80.38382870	      8.09123463	     69.32742302	    116.02746802	    103.84056380
      3.98333330	    -35.30656360	     -0.91033876	     -0.80874990	      1.22377703	      0.45831628	      0.03197834	    115.02819795	    -20.67212014	      4.29579293	    118.49625235	      2.06814975	     38.75725979	     -8.94847738	     -7.49999987	    119.72862747	    -22.76155432	     11.83123999	    114.48317543	      1.99810835	     31.12828738	    -10.87327978	     -7.49999987	    -24.35139508	      0.53196307	     13.46150316	     83.96531083	     -7.77134558	     74.90957975	    133.75573194	     83.56532042	     79.83425311	      7.59538531	     70.22164883	    115.08544795	    103.80854950
      4.00000000	    -35.71095794	     -0.99468160	     -0.84706821	      1.22353648	      0.46056093	      0.03128094	    114.89678199	    -20.65473298	      3.97522892	    117.90135252	      2.05776679	     38.65746503	     -8.94360061	     -7.49999987	    119.71859330	    -22.71934590	     11.68379482	    114.02784171	      1.99016128	     31.09449894	    -10.86247379	     -7.49999987	    -24.10777111	      0.76167979	     13.37774603	     83.43617680	     -7.59759224	     75.14221651	    133.82456208	     80.55737465	     79.14009998	      5.95821381	     72.57240832	    116.76897695	    102.81559536
      4.01666670	    -36.09020717	     -1.15744267	     -0.98465334	      1.22834602	      0.46099033	      0.02833764	    114.62334553	    -20.60580014	      3.54976964	    117.31074699	      2.04745878	     38.60360798	     -8.91612322	     -7.49999987	    119.69899362	    -22.69012291	     11.69867381	    113.63959754	      1.98338514	     31.23131729	    -10.87840433	     -7.49999987	    -23.69983091	      1.02713228	     13.28380350	     83.23221667	     -7.77775447	     75.96749631	    134.55893035	     79.18896299	     78.27120634	      5.55478982	     73.90027915	    118.19086097	     98.73835925
      4.03333330	    -36.44621354	     -1.41269650	     -1.18404946	      1.23300354	      0.46394543	      0.02488896	    114.19322157	    -20.57409233	      3.01083532	    116.70830932	      2.03694426	     38.52126318	     -9.11639037	     -7.49999987	    119.67090164	    -22.67508882	     11.84231953	    113.29612602	      1.97739043	     31.32934362	    -10.85820755	     -7.49999987	    -23.35981257	      1.49367388	     12.87952313	     82.24389793	     -6.98502335	     77.27267533	    134.60715171	     76.96665483	     77.03298200	      5.05386926	     75.07238440	    118.91623664	     92.67011746
      4.05000000	    -37.10085170	     -1.38314846	     -1.29200881	      1.23260171	      0.46718751	      0.02555332	    114.16857986	    -20.56158200	      2.83088584	    116.06644657	      2.02574164	     38.55417307	     -8.93760946	     -7.49999987	    119.64093041	    -22.67514128	     11.57006425	    112.81864936	      1.96905689	     31.52866738	    -11.05680717	     -7.49999987	    -22.62001792	      1.40798865	     13.16410964	     81.63670527	     -8.18675523	     77.32872911	    134.12750536	     83.83133843	     76.21900235	      6.38622583	     72.78371789	    115.70872994	    103.87260788
      4.06666670	    -37.81847768	     -1.56989177	     -1.44198001	      1.22726749	      0.48080442	      0.02762721	    113.69817145	    -20.49341333	      2.16026997	    114.86223411	      2.00472417	     38.40270897	     -9.10808847	     -7.49999987	    119.59564101	    -22.69854175	     11.38218590	    111.90770671	      1.95315794	     31.43507903	    -11.24892706	     -7.49999987	    -22.48062651	      1.67365487	     13.71691170	     82.65084946	     -9.38492865	     78.21388164	    133.35896491	     81.30200381	     76.35840997	      6.35598944	     72.95694894	    113.18816700	     99.39622526
      4.08333330	    -38.59923539	     -1.85314408	     -1.71684524	      1.23235424	      0.48458049	      0.02549812	    113.07469867	    -20.33616381	      1.27334852	    113.53569944	      1.98157177	     38.28532186	     -9.22149082	     -7.49999987	    119.52006389	    -22.83335015	     11.35922792	    110.91734205	      1.93587282	     31.34773932	    -11.43165669	     -7.49999987	    -21.86834192	      2.12531221	     13.96375167	     81.77100367	     -9.02723820	     79.47463767	    132.85747191	     80.02360993	     75.29876669	      5.68649855	     74.20475649	    112.89760667	     96.40443250
      4.10000000	    -39.25846891	     -1.96563064	     -1.96107408	      1.24210434	      0.48541776	      0.02041228	    112.50368071	    -20.21202739	      0.67347892	    112.38693999	      1.96152214	     38.45684044	     -9.19399632	     -7.49999987	    119.22812798	    -22.97917392	     11.16743392	    110.03571432	      1.92048551	     31.64970208	    -11.62707351	     -7.49999987	    -20.67886297	      2.49463724	     13.54323386	     81.48355548	     -8.55850539	     79.86433544	    133.58895300	     80.08605027	     74.94891819	      6.35265068	     74.12140406	    112.71858923	     96.37087789
      4.11666670	    -39.93990401	     -2.29076867	     -2.24352302	      1.24149770	      0.49076926	      0.02008201	    111.77931138	    -20.23209876	     -0.18734399	    111.23003130	      1.94133027	     38.26466302	     -8.89650067	     -7.49999987	    119.06562472	    -22.98524084	     11.26747625	    109.20900798	      1.90605676	     31.63568578	    -11.86059659	     -7.49999987	    -19.24920243	      2.97509653	     14.42710568	     81.44419078	     -9.71318940	     80.97053396	    134.94432315	     86.22467434	     73.23779606	      7.82017823	     72.43987063	    111.03994472	    104.91517931
      4.13333330	    -40.21918207	     -2.45025766	     -2.47124768	      1.24073321	      0.49081500	      0.02026447	    111.02504026	    -20.23089355	     -0.80339596	    110.27924304	      1.92473589	     38.31440737	     -8.69338846	     -7.49999987	    118.59237519	    -23.14703975	     11.18845444	    108.52006262	      1.89403240	     31.73628138	    -11.89696669	     -7.49999987	    -18.12649587	      3.42988377	     14.23629741	     81.19313054	     -7.57533263	     80.90155924	    134.81016539	     87.22686647	     72.99976540	      7.84131579	     71.34547117	    111.93762875	    105.67481732
      4.15000000	    -40.26171336	     -2.47656449	     -2.65627288	      1.24532668	      0.49767082	      0.01744433	    110.20280219	    -20.34301796	     -1.27262522	    109.45627234	      1.91037234	     38.32613133	     -8.52021662	     -7.49999987	    117.88919676	    -23.29209942	     10.94094881	    107.90557493	      1.88330756	     31.91116872	    -11.98936456	     -7.49999987	    -17.45348166	      3.63044391	     13.99712892	     80.43725747	     -6.48742557	     80.93492060	    134.99703412	     87.32467572	     72.50882659	      7.91697107	     71.21644436	    111.43381252	    105.64867773
